<svg width="27" height="29" viewBox="0 0 27 29" fill="none" xmlns="http://www.w3.org/2000/svg">
<g clip-path="url(#clip0_309_64)">
<path d="M5.42962 3.19826V2.94909C5.42962 2.32278 5.42624 1.69606 5.42962 1.06975C5.43426 0.466677 5.89377 0.00339014 6.47733 0.000856206C6.6166 -0.000314751 6.75473 0.0261304 6.88374 0.0786651C7.01275 0.1312 7.13008 0.208784 7.22898 0.306942C7.32788 0.405099 7.40637 0.521885 7.45994 0.650563C7.5135 0.77924 7.54108 0.917261 7.54108 1.05666C7.55036 1.68296 7.54319 2.30927 7.54361 2.93599V3.18094H18.9718V2.9588C18.9718 2.34643 18.9718 1.73407 18.9718 1.1217C18.9718 0.473436 19.4241 -0.00378799 20.0318 -0.000409419C20.6394 0.00296916 21.0866 0.480192 21.0866 1.13099C21.0866 1.73618 21.0866 2.34136 21.0866 2.94697V3.19826H21.3335C22.515 3.19826 23.6964 3.19826 24.8779 3.19826C26.1087 3.19826 26.997 4.08513 26.997 5.3124C26.997 12.5054 26.997 19.6989 26.997 26.893C26.997 28.1038 26.1007 29.0017 24.891 29.0021C17.2958 29.0021 9.70134 29.0021 2.10757 29.0021C0.898253 29.0021 -0.00219727 28.1043 -0.00219727 26.8943C-0.00219727 19.6943 -0.00219727 12.4943 -0.00219727 5.29424C-0.00219727 4.09653 0.896565 3.2029 2.0966 3.20037C3.12322 3.20037 4.14983 3.20037 5.17687 3.20037L5.42962 3.19826ZM1.61304 10.893V11.1041C1.61304 16.0594 1.61304 21.0138 1.61304 25.9673C1.61262 26.8783 2.20631 27.4818 3.11351 27.4818H24.1445C24.8914 27.4818 25.3876 26.9872 25.3876 26.2384C25.3876 21.1987 25.3876 16.159 25.3876 11.1193C25.3876 11.0454 25.3813 10.9715 25.3775 10.893H1.61304ZM21.0875 4.62359C21.0875 5.04591 21.0934 5.4391 21.0875 5.83228C21.0757 6.44633 20.6022 6.91891 20.0178 6.9092C19.4229 6.89991 18.9756 6.43029 18.9727 5.81116C18.9727 5.68447 18.9727 5.55777 18.9727 5.43107V4.61937C18.4773 4.96567 18.2718 5.70643 18.4697 6.33653C18.5735 6.66422 18.7783 6.95059 19.0548 7.1546C19.3312 7.35861 19.6651 7.46977 20.0086 7.47215C20.3595 7.47742 20.7029 7.36934 20.9877 7.16395C21.2724 6.95856 21.4835 6.66679 21.5896 6.33189C21.785 5.71318 21.5765 4.96694 21.0875 4.62359ZM5.43299 4.64555C5.07644 4.77647 4.79205 5.47119 4.85703 6.03499C4.94142 6.7711 5.55156 7.38178 6.2807 7.4616C7.06089 7.54606 7.77231 7.11107 8.0259 6.39228C8.25291 5.74993 8.0432 4.94709 7.54487 4.63288C7.54487 4.71439 7.54487 4.78154 7.54487 4.84869C7.54487 5.18655 7.55162 5.52441 7.54487 5.86226C7.54289 6.00177 7.51346 6.13951 7.45826 6.26762C7.40306 6.39573 7.32317 6.5117 7.22317 6.60889C7.12316 6.70608 7.00499 6.78259 6.87543 6.83405C6.74586 6.88551 6.60743 6.9109 6.46805 6.90878C5.88997 6.89822 5.43974 6.44084 5.43257 5.85001C5.42751 5.44965 5.43173 5.04887 5.43173 4.64555H5.43299Z" fill="url(#paint0_linear_309_64)"/>
<path d="M17.5288 19.1198C17.5288 19.4289 17.5318 19.7385 17.5288 20.0489C17.5233 20.4885 17.3005 20.7128 16.8651 20.7145C16.2324 20.7173 15.5995 20.7173 14.9663 20.7145C14.538 20.7145 14.3042 20.4754 14.3034 20.0447C14.3034 19.4115 14.3034 18.778 14.3034 18.1442C14.3034 17.7274 14.5393 17.4901 14.9579 17.4879C15.5975 17.484 16.2371 17.484 16.8765 17.4879C17.2849 17.4879 17.5195 17.7202 17.5263 18.1269C17.533 18.4572 17.5288 18.7878 17.5288 19.1198Z" fill="url(#paint1_linear_309_64)"/>
<path d="M22.3619 19.1097C22.3619 19.4336 22.3649 19.7571 22.3619 20.081C22.3577 20.4556 22.1378 20.7048 21.7712 20.7107C21.0898 20.722 20.4081 20.7213 19.726 20.7086C19.3626 20.7014 19.1466 20.459 19.1445 20.0941C19.1411 19.4327 19.1411 18.7711 19.1445 18.1092C19.1466 17.7291 19.3808 17.4918 19.7652 17.488C20.4187 17.482 21.0724 17.482 21.7264 17.488C22.1315 17.4913 22.3594 17.7316 22.3632 18.1392C22.364 18.4627 22.3623 18.7862 22.3619 19.1097Z" fill="url(#paint2_linear_309_64)"/>
<path d="M17.528 24.0905C17.528 24.4212 17.5335 24.7519 17.528 25.0821C17.5195 25.4707 17.2917 25.6991 16.906 25.7021C16.2458 25.7072 15.5847 25.7072 14.9228 25.7021C14.5473 25.6991 14.3076 25.4529 14.3059 25.0745C14.3026 24.4202 14.3026 23.766 14.3059 23.112C14.3059 22.7294 14.5389 22.4865 14.9199 22.4832C15.588 22.477 16.2556 22.477 16.9229 22.4832C17.2963 22.4874 17.52 22.7184 17.528 23.0968C17.5352 23.4271 17.528 23.7577 17.528 24.0884V24.0905Z" fill="url(#paint3_linear_309_64)"/>
<path d="M7.86057 19.1219C7.86057 19.4458 7.86352 19.7693 7.86057 20.0932C7.85635 20.4611 7.64959 20.7001 7.28081 20.7077C6.59246 20.7221 5.90327 20.7221 5.21323 20.7077C4.86765 20.7009 4.64486 20.4543 4.64148 20.1021C4.63529 19.434 4.63529 18.7657 4.64148 18.0973C4.6457 17.7269 4.88242 17.4926 5.25543 17.4883C5.91592 17.4805 6.57699 17.4805 7.23861 17.4883C7.63229 17.4921 7.85804 17.7333 7.86099 18.1303C7.86099 18.4609 7.86099 18.7916 7.86099 19.1219H7.86057Z" fill="url(#paint4_linear_309_64)"/>
<path d="M15.9094 15.8797C15.579 15.8797 15.249 15.8835 14.9186 15.8797C14.5494 15.8742 14.3089 15.6399 14.3059 15.272C14.3006 14.6039 14.3006 13.9358 14.3059 13.2677C14.3085 12.9155 14.5507 12.6671 14.9022 12.6633C15.5773 12.6566 16.2524 12.6566 16.9276 12.6633C17.2866 12.6667 17.5221 12.9003 17.5267 13.2618C17.5349 13.9299 17.5349 14.5981 17.5267 15.2665C17.5225 15.6534 17.2896 15.8713 16.9005 15.8806H15.9094V15.8797Z" fill="url(#paint5_linear_309_64)"/>
<path d="M7.85804 24.0943C7.85804 24.425 7.86141 24.7557 7.85804 25.0859C7.8534 25.4601 7.62723 25.6979 7.25549 25.7017C6.58796 25.7087 5.92043 25.7087 5.25289 25.7017C4.88073 25.6979 4.64486 25.4614 4.64148 25.0914C4.63529 24.4233 4.63529 23.7552 4.64148 23.0871C4.64444 22.7281 4.87482 22.4891 5.23686 22.484C5.91846 22.4742 6.60005 22.4742 7.28165 22.484C7.62892 22.4891 7.85298 22.7315 7.85762 23.0803C7.86057 23.419 7.85804 23.7569 7.85804 24.0943Z" fill="url(#paint6_linear_309_64)"/>
<path d="M9.47751 19.0805C9.47751 18.7498 9.47456 18.4191 9.47751 18.0884C9.48215 17.705 9.71296 17.4752 10.099 17.4731C10.7598 17.4703 11.4209 17.4703 12.0822 17.4731C12.4502 17.4752 12.6924 17.7143 12.6945 18.0792C12.6987 18.7478 12.6987 19.4161 12.6945 20.0839C12.6924 20.4488 12.4502 20.6861 12.081 20.6883C11.4202 20.6922 10.7591 20.6922 10.0978 20.6883C9.71212 20.6861 9.4851 20.4556 9.47666 20.0712V19.0796L9.47751 19.0805Z" fill="url(#paint7_linear_309_64)"/>
<path d="M7.86061 14.2876C7.86061 14.6182 7.86483 14.9489 7.86061 15.2796C7.85512 15.6403 7.62685 15.8746 7.26523 15.8776C6.5901 15.8835 5.91498 15.8835 5.23985 15.8776C4.88288 15.8742 4.6449 15.6356 4.64194 15.2779C4.63604 14.6022 4.63604 13.9265 4.64194 13.2508C4.64532 12.9095 4.88752 12.6646 5.22972 12.6595C5.91132 12.6519 6.59292 12.6519 7.27451 12.6595C7.62136 12.6637 7.84795 12.9045 7.8585 13.2508C7.8585 13.2647 7.8585 13.2791 7.8585 13.293C7.85822 13.6255 7.85892 13.957 7.86061 14.2876Z" fill="url(#paint8_linear_309_64)"/>
<path d="M20.734 15.8802C20.4104 15.8802 20.0871 15.8831 19.7635 15.8802C19.377 15.8759 19.1449 15.6479 19.1424 15.2627C19.1387 14.6017 19.1387 13.94 19.1424 13.2778C19.1445 12.9049 19.3749 12.665 19.7445 12.6617C20.4123 12.6552 21.08 12.6552 21.7475 12.6617C22.1193 12.665 22.3564 12.902 22.3594 13.2702C22.3647 13.9389 22.3647 14.6072 22.3594 15.275C22.3564 15.642 22.1159 15.8738 21.7442 15.8789C21.4087 15.8835 21.0711 15.8802 20.734 15.8802Z" fill="url(#paint9_linear_309_64)"/>
<path d="M12.6953 24.0951C12.6953 24.4254 12.6991 24.7561 12.6953 25.0867C12.6907 25.4542 12.4553 25.6983 12.089 25.7016C11.4215 25.7084 10.7538 25.7084 10.086 25.7016C9.71086 25.6978 9.48259 25.4651 9.48005 25.0901C9.47499 24.422 9.47499 23.7538 9.48005 23.0854C9.48259 22.723 9.71002 22.4882 10.0708 22.484C10.7459 22.4764 11.421 22.4764 12.0962 22.484C12.465 22.4882 12.6903 22.7319 12.6962 23.1031V24.0951H12.6953Z" fill="url(#paint10_linear_309_64)"/>
<path d="M11.0674 15.8797C10.7442 15.8797 10.421 15.8831 10.0969 15.8797C9.71043 15.8746 9.48004 15.6462 9.47793 15.2618C9.47456 14.6008 9.47456 13.9391 9.47793 13.2769C9.48047 12.8968 9.71339 12.6637 10.1012 12.6612C10.7543 12.6564 11.4078 12.6564 12.0616 12.6612C12.454 12.6637 12.692 12.9032 12.6945 13.2947C12.6973 13.9422 12.6973 14.5898 12.6945 15.2373C12.6945 15.6483 12.4654 15.8759 12.0569 15.8827H11.0674V15.8797Z" fill="url(#paint11_linear_309_64)"/>
</g>
<defs>
<linearGradient id="paint0_linear_309_64" x1="-0.00219727" y1="14.5008" x2="26.997" y2="14.5008" gradientUnits="userSpaceOnUse">
<stop stop-color="#F5A802"/>
<stop offset="1" stop-color="#FCC755"/>
</linearGradient>
<linearGradient id="paint1_linear_309_64" x1="14.3034" y1="19.1008" x2="17.5301" y2="19.1008" gradientUnits="userSpaceOnUse">
<stop stop-color="#F5A802"/>
<stop offset="1" stop-color="#FCC755"/>
</linearGradient>
<linearGradient id="paint2_linear_309_64" x1="19.142" y1="19.1011" x2="22.3634" y2="19.1011" gradientUnits="userSpaceOnUse">
<stop stop-color="#F5A802"/>
<stop offset="1" stop-color="#FCC755"/>
</linearGradient>
<linearGradient id="paint3_linear_309_64" x1="14.3034" y1="24.0922" x2="17.5312" y2="24.0922" gradientUnits="userSpaceOnUse">
<stop stop-color="#F5A802"/>
<stop offset="1" stop-color="#FCC755"/>
</linearGradient>
<linearGradient id="paint4_linear_309_64" x1="4.63684" y1="19.1004" x2="7.86188" y2="19.1004" gradientUnits="userSpaceOnUse">
<stop stop-color="#F5A802"/>
<stop offset="1" stop-color="#FCC755"/>
</linearGradient>
<linearGradient id="paint5_linear_309_64" x1="14.3019" y1="14.2698" x2="17.5328" y2="14.2698" gradientUnits="userSpaceOnUse">
<stop stop-color="#F5A802"/>
<stop offset="1" stop-color="#FCC755"/>
</linearGradient>
<linearGradient id="paint6_linear_309_64" x1="4.63684" y1="24.0918" x2="7.85954" y2="24.0918" gradientUnits="userSpaceOnUse">
<stop stop-color="#F5A802"/>
<stop offset="1" stop-color="#FCC755"/>
</linearGradient>
<linearGradient id="paint7_linear_309_64" x1="9.4762" y1="19.0811" x2="12.6977" y2="19.0811" gradientUnits="userSpaceOnUse">
<stop stop-color="#F5A802"/>
<stop offset="1" stop-color="#FCC755"/>
</linearGradient>
<linearGradient id="paint8_linear_309_64" x1="4.63751" y1="14.2679" x2="7.86248" y2="14.2679" gradientUnits="userSpaceOnUse">
<stop stop-color="#F5A802"/>
<stop offset="1" stop-color="#FCC755"/>
</linearGradient>
<linearGradient id="paint9_linear_309_64" x1="19.1396" y1="14.2691" x2="22.3634" y2="14.2691" gradientUnits="userSpaceOnUse">
<stop stop-color="#F5A802"/>
<stop offset="1" stop-color="#FCC755"/>
</linearGradient>
<linearGradient id="paint10_linear_309_64" x1="9.47626" y1="24.0925" x2="12.697" y2="24.0925" gradientUnits="userSpaceOnUse">
<stop stop-color="#F5A802"/>
<stop offset="1" stop-color="#FCC755"/>
</linearGradient>
<linearGradient id="paint11_linear_309_64" x1="9.4754" y1="14.2701" x2="12.6966" y2="14.2701" gradientUnits="userSpaceOnUse">
<stop stop-color="#F5A802"/>
<stop offset="1" stop-color="#FCC755"/>
</linearGradient>
<clipPath id="clip0_309_64">
<rect width="27" height="29" fill="white"/>
</clipPath>
</defs>
</svg>
